:SAMPLES-PER-SECOND 30
:FULLY-SPECIFIED
:DEGREES
81
root  42.8322 38.0926 0.812027 159.955 -89.2142 -152.148
RightUpLeg  -35.6745 -10.4448 -0.308928
RightLeg  24.8276 2.40201 0.987351
RightFoot  3.05814 -0.0256419 0.373103
RightToes  2.32829e-010 0 -3.6325e-017
Spine  42.5871 -1.82297 4.65079
Spine1  1.06416 0.115458 -1.98413
HEad  -48.7339 1.92486 -4.5152
LeftShoulder1  12.0119 -19.4602 -45.5754
LeftArm  -7.81427 -22.1736 -17.9249
LeftForeArm  -4.17172 -35.2963 -8.18596
LeftHand  -0.244104 0.0205437 5.32207
RightShoulder  7.36027 13.5901 37.0326
RightArm  -2.18261 14.8709 23.1334
RightForeArm  -28.3634 38.3616 10.3621
RightHand  -0.0111606 2.67577 -0.374988
LeftUpLeg  -35.3847 19.3406 -8.45605
LeftLeg  30.3276 4.21149 3.01017
LeftFoot  -4.74665 -0.382929 7.13213
LeftToes  1.42787e-010 7.94111e-011 2.6399e-011
82
root  42.7894 37.8293 0.643087 126.984 -89.3011 -118.45
RightUpLeg  -37.6437 -9.80578 -0.057415
RightLeg  27.2959 1.19325 0.443271
RightFoot  1.78318 -0.0663159 0.685836
RightToes  2.32829e-010 0 -3.6325e-017
Spine  44.145 -2.0354 4.78518
Spine1  0.580215 0.0496363 -1.97899
HEad  -50.8945 1.82238 -4.56877
LeftShoulder1  12.0849 -19.5242 -45.7296
LeftArm  -7.65997 -22.6695 -17.4978
LeftForeArm  -4.33435 -35.2158 -8.1718
LeftHand  -0.244104 0.0205437 5.32207
RightShoulder  7.57322 13.7798 37.7663
RightArm  -2.78713 15.2075 22.7289
RightForeArm  -27.9357 37.9483 10.2069
RightHand  0.00179855 3.12881 -0.20773
LeftUpLeg  -37.285 17.5143 -7.72764
LeftLeg  32.9114 5.20621 3.97569
LeftFoot  -5.94586 -0.27087 6.49831
LeftToes  1.42787e-010 7.94111e-011 2.6399e-011
83
root  42.7195 37.558 0.465585 79.1523 -89.3125 -69.9735
RightUpLeg  -39.5202 -9.85138 0.276452
RightLeg  29.6591 0.875865 0.299838
RightFoot  0.601784 -0.0627883 0.630735
RightToes  2.32829e-010 0 -3.6325e-017
Spine  45.3088 -2.23021 4.87798
Spine1  0.203157 -0.158235 -1.72747
HEad  -52.7424 1.67369 -4.4966
LeftShoulder1  12.1779 -19.6866 -45.7584
LeftArm  -7.65873 -22.9569 -17.3081
LeftForeArm  -4.61362 -35.2741 -8.20403
LeftHand  -0.244104 0.0205437 5.32207
RightShoulder  7.76018 13.8816 38.5534
RightArm  -3.81701 15.3512 22.202
RightForeArm  -27.4035 38.1247 10.2426
RightHand  0.0225745 3.18743 0.0699622
LeftUpLeg  -38.9777 15.8543 -7.18401
LeftLeg  35.2952 5.72474 4.70299
LeftFoot  -7.18176 -0.166809 5.78125
LeftToes  1.42787e-010 7.94111e-011 2.6399e-011
84
root  42.6239 37.3109 0.289938 42.3067 -88.8747 -32.5525
RightUpLeg  -41.2041 -9.93633 0.65754
RightLeg  32.1056 0.157922 -0.145603
RightFoot  -0.610491 0.024173 -0.305758
RightToes  2.32829e-010 0 -3.6325e-017
Spine  46.1238 -2.40545 5.15768
Spine1  -0.117963 -0.302425 -1.57538
HEad  -54.304 1.30765 -4.29599
LeftShoulder1  12.2963 -19.9354 -45.7081
LeftArm  -8.01473 -23.0397 -17.3529
LeftForeArm  -4.53281 -35.973 -8.40457
LeftHand  -0.244104 0.0205437 5.32207
RightShoulder  7.92146 13.9308 39.3172
RightArm  -5.04901 15.2358 21.4042
RightForeArm  -27.7304 38.7957 10.4812
RightHand  -0.00169377 2.76803 -0.24062
LeftUpLeg  -40.4527 14.5574 -6.7407
LeftLeg  37.3852 5.93325 5.21695
LeftFoot  -8.25054 -0.0884926 5.12219
LeftToes  1.42787e-010 7.94111e-011 2.6399e-011
85
root  42.4892 37.1199 0.125776 32.2832 -88.3555 -22.2359
RightUpLeg  -42.271 -9.81258 0.861202
RightLeg  34.2061 -0.808794 -0.847046
RightFoot  -1.915 0.0695303 -0.99316
RightToes  2.32829e-010 0 -3.6325e-017
Spine  46.767 -2.57422 5.40807
Spine1  -0.328438 -0.361891 -1.61098
HEad  -55.6941 0.958353 -4.03851
LeftShoulder1  12.3588 -20.054 -45.7074
LeftArm  -8.70404 -23.0473 -17.3605
LeftForeArm  -3.94544 -37.5299 -8.8417
LeftHand  -0.244104 0.0205437 5.32207
RightShoulder  8.03435 13.9705 39.8336
RightArm  -6.15904 15.2001 20.4673
RightForeArm  -27.6328 39.7377 10.8002
RightHand  -0.00337543 2.42088 -0.24495
LeftUpLeg  -41.3891 13.6263 -6.27325
LeftLeg  39.1174 6.05428 5.63293
LeftFoot  -9.11519 -0.0337701 4.56341
LeftToes  1.42787e-010 7.94111e-011 2.6399e-011
86
root  42.3054 37.0259 -0.0272718 27.4793 -87.9031 -17.5524
RightUpLeg  -42.4239 -9.78823 0.95377
RightLeg  35.4399 -1.23708 -1.20764
RightFoot  -2.82489 0.067389 -1.16142
RightToes  2.32829e-010 0 -3.6325e-017
Spine  47.1014 -2.70736 5.48699
Spine1  -0.241618 -0.440375 -1.60838
HEad  -56.784 0.80014 -3.73448
LeftShoulder1  12.3458 -20.0237 -45.7191
LeftArm  -9.43355 -23.2729 -17.2032
LeftForeArm  -3.51954 -39.412 -9.41359
LeftHand  -0.244104 0.0205437 5.32207
RightShoulder  8.07002 14.0018 39.9486
RightArm  -7.14339 15.6069 19.6387
RightForeArm  -26.7052 40.8019 11.1365
RightHand  0.0531975 2.54399 0.577164
LeftUpLeg  -41.4558 12.9991 -5.75179
LeftLeg  40.1812 6.09067 5.86896
LeftFoot  -9.72289 0.000130607 4.14107
LeftToes  1.42787e-010 7.94111e-011 2.6399e-011
87
root  42.077 37.0665 -0.171429 22.4183 -87.4971 -12.8141
RightUpLeg  -41.7882 -9.98955 1.02013
RightLeg  35.6882 -1.30745 -1.27324
RightFoot  -3.1043 0.0863377 -1.49017
RightToes  2.32829e-010 0 -3.6325e-017
Spine  46.8432 -2.74327 5.41446
Spine1  0.136942 -0.554596 -1.49788
HEad  -57.2773 0.725237 -3.44021
LeftShoulder1  12.304 -20.0314 -45.5429
LeftArm  -10.1412 -23.8821 -16.9846
LeftForeArm  -3.78315 -41.0721 -9.98817
LeftHand  -0.244104 0.0205437 5.32207
RightShoulder  8.02791 13.9876 39.7557
RightArm  -8.11662 16.6818 18.939
RightForeArm  -27.0852 41.8166 11.5265
RightHand  0.0698426 2.43701 0.831513
LeftUpLeg  -40.6996 12.7039 -5.35306
LeftLeg  40.189 6.00099 5.79139
LeftFoot  -9.9114 0.0104538 3.94376
LeftToes  1.42787e-010 7.94111e-011 2.6399e-011
